<?xml version="1.0" encoding="UTF-8" standalone="no"?>
<svg
   xmlns:dc="http://purl.org/dc/elements/1.1/"
   xmlns:cc="http://creativecommons.org/ns#"
   xmlns:rdf="http://www.w3.org/1999/02/22-rdf-syntax-ns#"
   xmlns:svg="http://www.w3.org/2000/svg"
   xmlns="http://www.w3.org/2000/svg"
   xmlns:sodipodi="http://sodipodi.sourceforge.net/DTD/sodipodi-0.dtd"
   xmlns:inkscape="http://www.inkscape.org/namespaces/inkscape"
   inkscape:export-ydpi="96"
   inkscape:export-xdpi="96"
   inkscape:export-filename="/Users/carl/graphql2sparql.png"
   inkscape:version="1.0 (4035a4f, 2020-05-01)"
   sodipodi:docname="graphqllogo.svg"
   xml:space="preserve"
   enable-background="new 0 0 400 400"
   viewBox="0 0 400 400"
   y="0px"
   x="0px"
   id="GraphQL_Logo"
   version="1.1"><metadata
   id="metadata83"><rdf:RDF><cc:Work
       rdf:about=""><dc:format>image/svg+xml</dc:format><dc:type
         rdf:resource="http://purl.org/dc/dcmitype/StillImage" /></cc:Work></rdf:RDF></metadata><defs
   id="defs81">
	
	
	
	
	
	
	
	
	
	
	
	
	
	
	
</defs><sodipodi:namedview
   inkscape:current-layer="GraphQL_Logo"
   inkscape:window-maximized="0"
   inkscape:window-y="47"
   inkscape:window-x="249"
   inkscape:cy="200"
   inkscape:cx="200"
   inkscape:zoom="1.2445079"
   showgrid="false"
   id="namedview79"
   inkscape:window-height="924"
   inkscape:window-width="1635"
   inkscape:pageshadow="2"
   inkscape:pageopacity="0"
   guidetolerance="10"
   gridtolerance="10"
   objecttolerance="10"
   borderopacity="1"
   bordercolor="#666666"
   pagecolor="#ffffff" />
<g
   inkscape:export-ydpi="96"
   inkscape:export-xdpi="96"
   inkscape:export-filename="/Users/carl/path68.png"
   style="fill:#cccccc"
   id="g14">
		<g
   style="fill:#cccccc"
   id="g12">
			
				<path
   id="rect10"
   transform="matrix(-0.866,-0.5,0.5,-0.866,163.3196,363.3136)"
   style="fill:#cccccc"
   d="m 122,-0.40000001 h 16.6 V 319.89999 H 122 Z" />
		</g>
	</g><g
   inkscape:export-ydpi="96"
   inkscape:export-xdpi="96"
   inkscape:export-filename="/Users/carl/path68.png"
   style="fill:#cccccc"
   id="g20">
		<g
   style="fill:#cccccc"
   id="g18">
			<path
   id="rect16"
   style="fill:#cccccc"
   d="M 39.799999,272.20001 H 360.09999 v 16.6 H 39.799999 Z" />
		</g>
	</g><g
   id="g26">
		<g
   id="g24">
			
				<path
   id="rect22"
   transform="matrix(-0.866,-0.5,0.5,-0.866,83.0693,663.3409)"
   style="fill:#e535ab"
   d="M 37.900002,312.20001 H 222.9 v 16.6 H 37.900002 Z" />
		</g>
	</g><g
   id="g32">
		<g
   id="g30">
			
				<path
   id="rect28"
   transform="matrix(-0.866,-0.5,0.5,-0.866,463.3409,283.0693)"
   style="fill:#e535ab"
   d="m 177.10001,71.099998 h 185 v 16.600001 h -185 z" />
		</g>
	</g><g
   id="g38">
		<g
   id="g36">
			
				<path
   id="rect34"
   transform="matrix(-0.5,-0.866,0.866,-0.5,126.7903,232.1221)"
   style="fill:#e535ab"
   d="m 122.1,-13 h 16.6 v 185 h -16.6 z" />
		</g>
	</g><g
   inkscape:export-ydpi="96"
   inkscape:export-xdpi="96"
   inkscape:export-filename="/Users/carl/path68.png"
   style="fill:#cccccc"
   id="g44">
		<g
   style="fill:#cccccc"
   id="g42">
			
				<path
   id="rect40"
   transform="matrix(-0.5,-0.866,0.866,-0.5,266.0828,473.3766)"
   style="fill:#cccccc"
   d="m 109.6,151.60001 h 320.29999 v 16.6 H 109.6 Z" />
		</g>
	</g><g
   id="g50">
		<g
   id="g48">
			<path
   id="rect46"
   style="fill:#e535ab"
   d="m 52.5,107.5 h 16.6 v 185 H 52.5 Z" />
		</g>
	</g><g
   id="g56">
		<g
   id="g54">
			<path
   id="rect52"
   style="fill:#e535ab"
   d="m 330.89999,107.5 h 16.6 v 185 h -16.6 z" />
		</g>
	</g><g
   id="g62">
		<g
   id="g60">
			
				<path
   id="rect58"
   transform="matrix(-0.5,-0.866,0.866,-0.5,126.7953,714.2875)"
   style="fill:#e535ab"
   d="m 262.39999,240.10001 h 14.5 V 401 h -14.5 z" />
		</g>
	</g><path
   inkscape:export-ydpi="96"
   inkscape:export-xdpi="96"
   inkscape:export-filename="/Users/carl/path68.png"
   style="fill:#cccccc"
   fill="#e535ab"
   d="m 369.5,297.9 c -9.6,16.7 -31,22.4 -47.7,12.8 -16.7,-9.6 -22.4,-31 -12.8,-47.7 9.6,-16.7 31,-22.4 47.7,-12.8 16.8,9.7 22.5,31 12.8,47.7"
   id="path64" /><path
   fill="#e535ab"
   d="m 90.9,137 c -9.6,16.7 -31,22.4 -47.7,12.8 -16.7,-9.6 -22.4,-31 -12.8,-47.7 9.6,-16.7 31,-22.4 47.7,-12.8 16.7,9.7 22.4,31 12.8,47.7"
   id="path66" /><path
   inkscape:export-ydpi="96"
   inkscape:export-xdpi="96"
   inkscape:export-filename="/Users/carl/path68.png"
   style="fill:#cccccc"
   fill="#e535ab"
   d="m 30.5,297.9 c -9.6,-16.7 -3.9,-38 12.8,-47.7 16.7,-9.6 38,-3.9 47.7,12.8 9.6,16.7 3.9,38 -12.8,47.7 -16.8,9.6 -38.1,3.9 -47.7,-12.8"
   id="path68" /><path
   fill="#e535ab"
   d="m 309.1,137 c -9.6,-16.7 -3.9,-38 12.8,-47.7 16.7,-9.6 38,-3.9 47.7,12.8 9.6,16.7 3.9,38 -12.8,47.7 -16.7,9.6 -38.1,3.9 -47.7,-12.8"
   id="path70" /><path
   fill="#e535ab"
   d="m 200,395.8 c -19.3,0 -34.9,-15.6 -34.9,-34.9 0,-19.3 15.6,-34.9 34.9,-34.9 19.3,0 34.9,15.6 34.9,34.9 0,19.2 -15.6,34.9 -34.9,34.9"
   id="path72" /><path
   inkscape:export-ydpi="96"
   inkscape:export-xdpi="96"
   inkscape:export-filename="/Users/carl/path68.png"
   style="fill:#cccccc"
   fill="#e535ab"
   d="m 200,74 c -19.3,0 -34.9,-15.6 -34.9,-34.9 0,-19.3 15.6,-34.9 34.9,-34.9 19.3,0 34.9,15.6 34.9,34.9 0,19.3 -15.6,34.9 -34.9,34.9"
   id="path74" />
</svg>
